<svg xmlns="http://www.w3.org/2000/svg" viewBox="0 0 1600 900" role="img" aria-label="Pink maid cafe inspired interior illustration">
  <defs>
    <linearGradient id="wall" x1="0" x2="1" y1="0" y2="1">
      <stop offset="0" stop-color="#ffe8f1"/>
      <stop offset="0.52" stop-color="#f8c9dc"/>
      <stop offset="1" stop-color="#d8efe4"/>
    </linearGradient>
    <linearGradient id="floor" x1="0" x2="0" y1="0" y2="1">
      <stop offset="0" stop-color="#f7dcc8"/>
      <stop offset="1" stop-color="#b77a58"/>
    </linearGradient>
    <linearGradient id="counter" x1="0" x2="1">
      <stop offset="0" stop-color="#7c4a31"/>
      <stop offset="1" stop-color="#c48a66"/>
    </linearGradient>
    <radialGradient id="glow" cx="55%" cy="30%" r="55%">
      <stop offset="0" stop-color="#fff7fb" stop-opacity=".95"/>
      <stop offset=".6" stop-color="#ffd6e7" stop-opacity=".28"/>
      <stop offset="1" stop-color="#ffd6e7" stop-opacity="0"/>
    </radialGradient>
    <filter id="softShadow" x="-20%" y="-20%" width="140%" height="140%">
      <feDropShadow dx="0" dy="16" stdDeviation="18" flood-color="#7a3b4f" flood-opacity=".22"/>
    </filter>
  </defs>
  <rect width="1600" height="900" fill="url(#wall)"/>
  <rect width="1600" height="900" fill="url(#glow)"/>
  <path d="M0 590 C270 545 470 625 760 575 C1070 520 1260 565 1600 525 L1600 900 L0 900 Z" fill="url(#floor)"/>
  <path d="M860 122 h390 a34 34 0 0 1 34 34 v248 H826 V156 a34 34 0 0 1 34-34Z" fill="#fff7fb" opacity=".9"/>
  <path d="M886 158 h338 v66 H886Z" fill="#f58ab2" opacity=".65"/>
  <path d="M886 250 h338 v118 H886Z" fill="#f9e7ef"/>
  <g fill="#fff" opacity=".95">
    <circle cx="948" cy="306" r="34"/>
    <circle cx="1056" cy="306" r="34"/>
    <circle cx="1164" cy="306" r="34"/>
  </g>
  <g fill="#7c4a31">
    <rect x="922" y="318" width="52" height="18" rx="9"/>
    <rect x="1030" y="318" width="52" height="18" rx="9"/>
    <rect x="1138" y="318" width="52" height="18" rx="9"/>
  </g>
  <g filter="url(#softShadow)">
    <path d="M548 454 h642 a70 70 0 0 1 70 70 v190 H478 V524 a70 70 0 0 1 70-70Z" fill="url(#counter)"/>
    <path d="M502 494 h734 a38 38 0 0 1 38 38 v52 H464 v-52 a38 38 0 0 1 38-38Z" fill="#f6b7cd"/>
    <path d="M546 548 h684 v54 H546Z" fill="#fff3f8" opacity=".8"/>
    <path d="M600 644 h136 v92 H600Z" fill="#4b2b1d" opacity=".6"/>
    <path d="M774 644 h136 v92 H774Z" fill="#4b2b1d" opacity=".5"/>
    <path d="M948 644 h136 v92 H948Z" fill="#4b2b1d" opacity=".55"/>
  </g>
  <g filter="url(#softShadow)">
    <ellipse cx="1192" cy="742" rx="170" ry="34" fill="#6a3b29" opacity=".35"/>
    <path d="M1112 492 C1080 530 1062 612 1075 690 h238 c11-86-12-154-46-198Z" fill="#2e2424"/>
    <path d="M1134 536 C1158 598 1170 646 1162 690 h68 c-4-58 8-104 34-154Z" fill="#fff6fb"/>
    <path d="M1106 492 C1150 520 1232 520 1276 492 C1258 458 1228 440 1192 440 C1156 440 1126 458 1106 492Z" fill="#f58ab2"/>
    <path d="M1140 430 C1164 398 1220 398 1244 430 C1232 456 1152 456 1140 430Z" fill="#3b2828"/>
    <circle cx="1192" cy="438" r="44" fill="#f5c7b5"/>
    <path d="M1152 410 C1172 368 1222 366 1248 404 C1230 394 1190 392 1152 410Z" fill="#3b2828"/>
    <path d="M1138 420 C1118 406 1100 410 1088 432 C1114 428 1130 436 1148 452Z" fill="#fff6fb"/>
    <path d="M1246 420 C1266 406 1284 410 1296 432 C1270 428 1254 436 1236 452Z" fill="#fff6fb"/>
  </g>
  <g filter="url(#softShadow)">
    <ellipse cx="378" cy="744" rx="168" ry="34" fill="#6a3b29" opacity=".3"/>
    <rect x="266" y="570" width="224" height="118" rx="22" fill="#fff7fb"/>
    <path d="M248 640 h260 v38 H248Z" fill="#f58ab2"/>
    <path d="M286 532 h184 v54 H286Z" fill="#8a5a3e"/>
    <path d="M316 486 h124 v64 H316Z" fill="#fff1f7"/>
    <path d="M336 462 h84 v48 H336Z" fill="#f58ab2"/>
    <circle cx="302" cy="608" r="18" fill="#f7c6d7"/>
    <circle cx="454" cy="608" r="18" fill="#f7c6d7"/>
  </g>
  <g opacity=".9">
    <path d="M120 134 C156 94 214 94 250 134 C214 174 156 174 120 134Z" fill="#fff7fb"/>
    <path d="M96 134 h180" stroke="#f58ab2" stroke-width="14" stroke-linecap="round"/>
    <circle cx="1380" cy="168" r="44" fill="#fff7fb"/>
    <path d="M1330 168 h100" stroke="#f58ab2" stroke-width="14" stroke-linecap="round"/>
    <path d="M1346 134 l68 68" stroke="#f58ab2" stroke-width="12" stroke-linecap="round"/>
  </g>
  <rect width="760" height="900" fill="#241b14" opacity=".42"/>
  <rect width="1600" height="900" fill="#241b14" opacity=".08"/>
</svg>
